<svg width="28" height="27" viewBox="0 0 28 27" fill="none" xmlns="http://www.w3.org/2000/svg">
<path d="M27.7425 18.3199C27.6937 18.0133 27.6348 17.7086 27.57 17.4049C26.0497 16.921 24.5294 16.4371 23.0082 15.9532C24.2731 15.5629 25.538 15.1726 26.8019 14.7813C26.2632 13.3446 25.5459 11.9735 24.6382 10.723C24.4756 10.4979 24.297 10.2839 24.1234 10.0678C22.4655 10.3088 20.8086 10.5517 19.1517 10.7927C20.3308 10.027 21.5109 9.26131 22.691 8.49564C18.4773 4.41239 12.2017 2.38321 6.33315 3.41373C5.99797 9.2643 8.06689 15.3269 11.4735 20.132C12.2656 18.8596 13.0586 17.5861 13.8507 16.3126C13.733 18.4245 13.6163 20.5363 13.4985 22.6481C14.1679 23.3799 14.8752 24.0669 15.6183 24.7091C20.6989 29.0991 28.79 24.8894 27.7425 18.3199Z" fill="#FFB13C"/>
<path d="M1.04419 1.25728C8.95376 4.03122 15.7032 9.82901 19.5447 17.1492" stroke="#2B2C34" stroke-width="1.33333" stroke-miterlimit="10" stroke-linecap="round" stroke-linejoin="round"/>
</svg>
