<svg width="28" height="27" viewBox="0 0 28 27" fill="none" xmlns="http://www.w3.org/2000/svg">
<path d="M0.127257 8.44293C0.176137 8.7496 0.234993 9.05427 0.299833 9.35795C1.8201 9.84185 3.34036 10.3257 4.86163 10.8096C3.59673 11.1999 2.33184 11.5902 1.06795 11.9815C1.60662 13.4183 2.32386 14.7893 3.23163 16.0399C3.39423 16.2649 3.57179 16.479 3.74637 16.6951C5.40429 16.4541 7.06122 16.2122 8.71815 15.9702C7.53905 16.7359 6.35895 17.5015 5.17885 18.2672C9.39249 22.3505 15.6681 24.3796 21.5367 23.3491C21.8718 17.4986 19.8029 11.4359 16.3963 6.63081C15.6032 7.90427 14.8112 9.17674 14.0191 10.4502C14.1368 8.33839 14.2536 6.22657 14.3713 4.11475C13.7019 3.38293 12.9946 2.69592 12.2515 2.05371C7.17095 -2.3362 -0.920169 1.8735 0.127257 8.44293Z" fill="#FF7AD7"/>
<path d="M26.8255 25.5056C18.9159 22.7316 12.1665 16.9338 8.32495 9.61365" stroke="#2B2C34" stroke-width="1.33333" stroke-miterlimit="10" stroke-linecap="round" stroke-linejoin="round"/>
</svg>
