<svg width="36" height="18" viewBox="0 0 36 18" fill="none" xmlns="http://www.w3.org/2000/svg">
<path d="M32.9997 4.72663C32.7702 4.51655 32.5348 4.31442 32.2954 4.11629C30.8021 4.67984 29.3097 5.24339 27.8164 5.80694C28.5646 4.71668 29.3127 3.62642 30.0609 2.53616C28.7441 1.7436 27.3296 1.11434 25.8392 0.697153C25.5719 0.621483 25.2996 0.563732 25.0282 0.502001C23.8791 1.71871 22.7309 2.93642 21.5827 4.15313C22.0306 2.82191 22.4785 1.48971 22.9274 0.158495C17.0838 -0.429947 10.9029 1.86906 6.94467 6.31572C10.3224 11.1089 15.7171 14.5778 21.3762 16.2326C21.2056 14.7431 21.0341 13.2536 20.8625 11.765C22.0845 13.4925 23.3075 15.221 24.5295 16.9485C25.5091 17.1068 26.4906 17.2074 27.4722 17.2502C34.1857 17.5419 37.9086 9.22607 32.9997 4.72663Z" fill="#6246EA"/>
<path d="M1.45767 7.90392C9.3832 5.17478 18.2803 5.53521 25.8458 8.89062" stroke="#2B2C34" stroke-width="1.33333" stroke-miterlimit="10" stroke-linecap="round" stroke-linejoin="round"/>
</svg>
