<svg width="15" height="25" viewBox="0 0 15 25" fill="none" xmlns="http://www.w3.org/2000/svg">
<path d="M1.31506 3.89752C1.24873 4.11789 1.18903 4.33973 1.13376 4.56305C1.98866 5.37525 2.84356 6.18744 3.69846 6.99963C2.73154 6.85223 1.76461 6.70483 0.797694 6.55742C0.692305 7.68875 0.726943 8.8326 0.925929 9.95803C0.962041 10.1607 1.01142 10.3604 1.05711 10.5609C2.23702 10.9338 3.41693 11.3068 4.59684 11.6797C3.56506 11.8094 2.53329 11.9399 1.50225 12.0696C2.98432 16.1475 6.50194 19.5208 10.7359 20.7251C12.8474 16.9369 13.4296 12.231 12.7162 7.9327C11.778 8.526 10.8406 9.11856 9.90238 9.71186L12.1819 5.60446C11.9733 4.90134 11.7249 4.21592 11.4382 3.54891C9.47788 -1.01249 2.73964 -0.815709 1.31506 3.89752Z" fill="#496AFE"/>
<path d="M13.5561 23.8664C9.19314 19.4693 6.57833 13.4332 6.38745 7.31886" stroke="#2B2C34" stroke-width="1.33333" stroke-miterlimit="10" stroke-linecap="round" stroke-linejoin="round"/>
</svg>
