<svg width="24" height="17" viewBox="0 0 24 17" fill="none" xmlns="http://www.w3.org/2000/svg">
<path d="M1.17134 6.9599C1.24356 7.17806 1.32242 7.39401 1.40496 7.60848C2.57161 7.78241 3.73751 7.95635 4.90416 8.13029C4.02788 8.56513 3.15161 8.99997 2.27534 9.43407C2.83839 10.4209 3.52379 11.3378 4.33373 12.1448C4.47965 12.29 4.63442 12.4249 4.78698 12.5627C5.96689 12.1905 7.14679 11.8183 8.3267 11.4454C7.55729 12.1448 6.78715 12.8435 6.01774 13.5422C9.57294 16.0289 14.3899 16.7704 18.5479 15.3243C18.1006 11.0098 15.8749 6.82429 12.8216 3.71481C12.3948 4.73853 11.9674 5.76298 11.5399 6.7867C11.3756 5.23012 11.2113 3.6728 11.0469 2.11548C10.4728 1.66 9.87584 1.24138 9.25825 0.859599C5.03386 -1.74797 -0.369692 2.28352 1.17134 6.9599Z" fill="#FFB13C"/>
<path d="M22.6604 16.276C16.5641 15.1822 10.9564 11.7426 7.28842 6.84729" stroke="#2B2C34" stroke-width="1.33333" stroke-miterlimit="10" stroke-linecap="round" stroke-linejoin="round"/>
</svg>
