<svg width="20" height="22" viewBox="0 0 20 22" fill="none" xmlns="http://www.w3.org/2000/svg">
<path d="M13.5775 0.349437C13.352 0.392921 13.1272 0.443039 12.9039 0.497578C12.5811 1.63111 12.2576 2.76538 11.934 3.89892C11.6164 2.97396 11.2987 2.049 10.9811 1.12404C9.93017 1.5552 8.9323 2.11607 8.02728 2.81403C7.86441 2.94006 7.71038 3.07567 7.55414 3.20981C7.77081 4.4281 7.98675 5.64639 8.20342 6.86468C7.61015 6.01121 7.01688 5.15701 6.42361 4.30354C3.49779 7.50736 2.13879 12.1882 3.03496 16.4982C7.37063 16.6132 11.8095 14.9476 15.2873 12.3223C14.327 11.7666 13.3675 11.2101 12.4072 10.6537C13.9725 10.6928 15.5371 10.7311 17.1025 10.7694C17.6287 10.2586 18.121 9.72136 18.5794 9.15828C21.7123 5.30662 18.4143 -0.57331 13.5775 0.349437Z" fill="#29D3F3"/>
<path d="M1.55914 20.4531C3.43255 14.5489 7.5685 9.43323 12.8976 6.42988" stroke="#2B2C34" stroke-width="1.33333" stroke-miterlimit="10" stroke-linecap="round" stroke-linejoin="round"/>
</svg>
