<svg width="59" height="40" viewBox="0 0 59 40" fill="none" xmlns="http://www.w3.org/2000/svg">
<path d="M27.2115 3.71671C29.1851 4.80603 30.9251 6.13266 32.3947 7.60891C33.0845 8.30465 33.7065 9.03135 34.274 9.77943C35.745 11.7333 36.804 13.861 37.4039 16.0338C37.7709 17.3611 37.9567 18.7084 37.9662 20.035C37.9817 22.277 37.4621 24.4711 36.3581 26.4707C35.2475 28.4835 33.6623 30.0894 31.7468 31.2738C30.6163 31.9799 29.3811 32.5341 28.0553 32.9277C25.9387 33.5667 23.6069 33.8062 21.2168 33.6124C20.2507 33.5394 19.2646 33.3957 18.2881 33.1724C16.2518 32.7221 14.2059 31.9511 12.2323 30.8618C10.6772 30.0039 9.23497 29.0797 7.93272 28.0715C7.70647 27.8953 7.47948 27.7192 7.27312 27.5371C6.25166 26.7006 5.33191 25.8177 4.52491 24.8861C1.89831 21.8599 0.498776 18.3252 0.968971 14.3224C1.19891 12.3605 1.88062 10.2902 3.08559 8.10787C4.28245 5.93809 5.68345 4.26506 7.23333 3.03129C10.364 0.540167 14.1145 -0.169584 18.0883 0.429612C19.2808 0.601338 20.4916 0.894673 21.7047 1.29119C21.9951 1.38332 22.2685 1.4747 22.5478 1.58599C24.0984 2.14392 25.6564 2.85809 27.2115 3.71671Z" fill="#FFD94B"/>
<path d="M35.2259 23.8279L33.5161 26.927L54.5577 39.5831C55.8622 40.3673 57.5572 39.9118 58.2927 38.5793C59.0282 37.246 58.5094 35.5693 57.1504 34.8839L35.2259 23.8279Z" fill="#2B2C34"/>
<path d="M27.2115 3.71671C29.1851 4.80602 30.9251 6.13266 32.3947 7.6089C33.0845 8.30465 33.7065 9.03135 34.274 9.77942C35.745 11.7333 36.804 13.861 37.4039 16.0338L31.8618 16.2829L35.0537 21.9144L28.5911 22.21L31.7867 27.8349L25.3241 28.1297L28.0553 32.9277C25.9387 33.5667 23.6069 33.8062 21.2169 33.6124C20.2507 33.5394 19.2646 33.3957 18.2881 33.1724C16.2518 32.7221 14.2059 31.9511 12.2323 30.8618C10.6773 30.0039 9.23499 29.0797 7.93274 28.0715C7.70649 27.8953 7.4795 27.7192 7.27314 27.5371C6.25168 26.7006 5.33193 25.8177 4.52493 24.8861L5.45132 24.8441L2.2565 19.2184L8.71836 18.9236L5.52354 13.2979L11.9861 13.0031L8.79059 7.37748L15.2495 7.08857L12.0539 1.46364L18.5129 1.17473L18.0884 0.429607C19.2808 0.601332 20.4917 0.894667 21.7047 1.29118C21.9951 1.38331 22.2685 1.4747 22.5478 1.58599C24.0985 2.14391 25.6564 2.85808 27.2115 3.71671Z" fill="#FF7AD7"/>
<path d="M27.2095 3.71653C28.231 4.28035 29.1942 4.90829 30.0823 5.59225C30.9114 6.22092 31.683 6.89972 32.392 7.61094L18.2862 33.1722C17.3067 32.9518 16.3214 32.6607 15.3471 32.2944C14.2954 31.9075 13.2504 31.4277 12.2289 30.8639C11.6246 30.53 11.0401 30.1858 10.4771 29.8298C9.57797 29.2741 8.72749 28.686 7.93597 28.0698L22.5511 1.58434C23.4937 1.92631 24.4488 2.32652 25.398 2.79084C26.0024 3.07238 26.6052 3.38266 27.2095 3.71653Z" fill="#FDB044"/>
<path d="M6.18799 7.27951C9.17866 3.45365 14.5093 1.62805 19.2178 2.81686" stroke="white" stroke-width="1.33333" stroke-miterlimit="10" stroke-linecap="round" stroke-linejoin="round"/>
</svg>
