<svg width="46" height="55" viewBox="0 0 46 55" fill="none" xmlns="http://www.w3.org/2000/svg">
<path d="M29.7961 31.4056L26.9587 33.5216L40.8936 53.7395C41.7574 54.9931 43.4893 55.2784 44.7097 54.3681C45.9301 53.4587 46.1505 51.7171 45.1961 50.5312L29.7961 31.4056Z" fill="#2B2C34"/>
<path d="M30.8046 9.77972C32.1518 11.5869 33.188 13.5135 33.9176 15.4651C34.2581 16.3841 34.5241 17.3032 34.732 18.2186C35.2641 20.6058 35.3503 22.9812 34.9988 25.207C34.785 26.5675 34.3974 27.8713 33.8586 29.0837C32.9463 31.1319 31.5666 32.9147 29.736 34.2804C27.8928 35.6542 25.7857 36.462 23.5519 36.7494C22.2305 36.9248 20.8767 36.9197 19.5074 36.731C17.3156 36.4384 15.0936 35.6933 12.9961 34.5288C12.1471 34.0637 11.3077 33.5257 10.511 32.9184C8.84251 31.6677 7.29779 30.1199 5.95059 28.3128C4.88859 26.8889 3.95705 25.4517 3.18764 23.9953C3.05424 23.7411 2.92011 23.4868 2.80736 23.2362C2.22293 22.0518 1.74979 20.8682 1.39972 19.6867C0.258134 15.8454 0.443115 12.049 2.52435 8.59754C3.54434 6.90608 5.02052 5.30233 7.01921 3.81208C9.00538 2.33067 10.9724 1.38581 12.8937 0.903068C16.7739 -0.0727445 20.4824 0.830103 23.8541 3.01757C24.8689 3.66689 25.8506 4.43412 26.7917 5.29643C27.018 5.49985 27.2287 5.6959 27.4373 5.91332C28.6194 7.06086 29.7426 8.3558 30.8046 9.77972Z" fill="#29D3F3"/>
<path d="M30.8046 9.77973C32.1518 11.5869 33.188 13.5135 33.9176 15.4651C34.2581 16.3841 34.5241 17.3032 34.732 18.2186C35.2641 20.6058 35.3503 22.9812 34.9988 25.207L29.8495 23.1448L30.4295 29.5923L24.4223 27.1911L25.009 33.6341L19.0018 31.2336L19.5074 36.731C17.3156 36.4384 15.0936 35.6933 12.9961 34.5288C12.1471 34.0637 11.3077 33.5257 10.511 32.9184C8.84251 31.6677 7.29779 30.12 5.95059 28.3128C4.88859 26.8889 3.95705 25.4517 3.18764 23.9953C3.05424 23.7411 2.92011 23.4868 2.80736 23.2362C2.22293 22.0518 1.74979 20.8682 1.39972 19.6867L2.26125 20.0309L1.67461 13.5879L7.68176 15.9891L7.09512 9.54609L13.103 11.9466L12.5164 5.50428L18.5176 7.90917L17.931 1.46616L23.9322 3.87179L23.8541 3.01758C24.8689 3.6669 25.8506 4.43413 26.7917 5.29644C27.018 5.49986 27.2287 5.69591 27.4373 5.91333C28.6194 7.06087 29.7426 8.35581 30.8046 9.77973Z" fill="#496AFE"/>
<path d="M30.8029 9.77876C31.5001 10.714 32.1177 11.6839 32.6439 12.6738C33.1399 13.5884 33.5614 14.5252 33.9137 15.4663L10.5101 32.9174C9.70897 32.3124 8.93146 31.6402 8.19521 30.9039C7.39706 30.1175 6.64386 29.2486 5.94668 28.3133C5.53397 27.7591 5.14484 27.2041 4.77856 26.6484C4.18897 25.7706 3.65761 24.8832 3.1911 23.9951L27.4408 5.91236C28.1586 6.61326 28.8624 7.37239 29.5353 8.18753C29.9694 8.69313 30.3902 9.22526 30.8029 9.77876Z" fill="#FFD94B"/>
<path d="M9.09991 4.51672C13.4769 1.59002 19.7972 1.99244 23.7673 5.45126" stroke="white" stroke-width="1.33333" stroke-miterlimit="10" stroke-linecap="round" stroke-linejoin="round"/>
</svg>
