<svg width="44" height="26" viewBox="0 0 44 26" fill="none" xmlns="http://www.w3.org/2000/svg">
<path d="M38.4726 16.0461C38.4514 16.0461 38.432 16.0519 38.411 16.0521C38.8005 15.1512 39.0187 14.1588 39.0187 13.1149C39.0187 9.0215 35.7001 5.70293 31.6067 5.70293C30.1599 5.70293 28.8145 6.12398 27.6736 6.84078C26.1304 3.09007 22.4438 0.447144 18.1365 0.447144C12.4407 0.447144 7.82365 5.06418 7.82365 10.76C7.82365 11.1903 7.85851 11.6121 7.90978 12.0286C7.88074 12.0284 7.8527 12.0243 7.82365 12.0243C4.005 12.0243 0.909088 15.1201 0.909088 18.939C0.909088 22.7577 4.005 25.8535 7.82365 25.8535H38.4726C41.181 25.8535 43.3763 23.6581 43.3763 20.9498C43.3763 18.2414 41.181 16.0461 38.4726 16.0461Z" fill="white"/>
</svg>
