<svg width="41" height="25" viewBox="0 0 41 25" fill="none" xmlns="http://www.w3.org/2000/svg">
<path d="M35.6578 15.3111C35.6382 15.3111 35.6197 15.3168 35.6 15.3168C35.9639 14.4777 36.1675 13.5504 36.1675 12.5747C36.1675 8.75172 33.0682 5.65123 29.2444 5.65123C27.8932 5.65123 26.6362 6.04378 25.5707 6.71507C24.1294 3.21068 20.6856 0.741669 16.6627 0.741669C11.3426 0.741669 7.02983 5.0539 7.02983 10.3759C7.02983 10.777 7.06225 11.1695 7.11004 11.5592C7.08301 11.5592 7.05685 11.5564 7.02983 11.5564C3.46285 11.5564 0.571152 14.4464 0.571152 18.0133C0.571152 21.5803 3.46285 24.4731 7.02983 24.4731H35.6578C38.1877 24.4731 40.2383 22.4223 40.2383 19.8935C40.2383 17.3619 38.1877 15.3111 35.6578 15.3111Z" fill="#C2CEF2"/>
</svg>
