<svg width="46" height="28" viewBox="0 0 46 28" fill="none" xmlns="http://www.w3.org/2000/svg">
<path d="M40.1252 16.7346C40.1026 16.7346 40.0819 16.74 40.0592 16.74C40.4742 15.7794 40.7067 14.7219 40.7067 13.6106C40.7067 9.24883 37.1712 5.7158 32.8105 5.7158C31.2692 5.7158 29.8356 6.16248 28.6204 6.92666C26.9763 2.93083 23.0488 0.113585 18.4597 0.113585C12.3919 0.113585 7.47316 5.03504 7.47316 11.1028C7.47316 11.5602 7.5103 12.0096 7.56465 12.4536C7.53398 12.4536 7.5041 12.4482 7.47316 12.4482C3.40467 12.4482 0.106567 15.7471 0.106567 19.8153C0.106567 23.8835 3.40467 27.1816 7.47316 27.1816H40.1252C43.0105 27.1816 45.3494 24.8428 45.3494 21.9575C45.3494 19.0724 43.0105 16.7346 40.1252 16.7346Z" fill="white"/>
</svg>
